<?xml version="1.0" encoding="UTF-8" standalone="no"?>
<svg
   xmlns:dc="http://purl.org/dc/elements/1.1/"
   xmlns:cc="http://creativecommons.org/ns#"
   xmlns:rdf="http://www.w3.org/1999/02/22-rdf-syntax-ns#"
   xmlns:svg="http://www.w3.org/2000/svg"
   xmlns="http://www.w3.org/2000/svg"
   xmlns:sodipodi="http://sodipodi.sourceforge.net/DTD/sodipodi-0.dtd"
   xmlns:inkscape="http://www.inkscape.org/namespaces/inkscape"
   version="1.0"
   width="154.000000pt"
   height="154.000000pt"
   viewBox="0 0 154.000000 154.000000"
   preserveAspectRatio="xMidYMid meet"
   id="svg2"
   inkscape:version="0.91 r13725"
   sodipodi:docname="CMlogo-white.svg">
  <metadata
     id="metadata22">
    <rdf:RDF>
      <cc:Work
         rdf:about="">
        <dc:format>image/svg+xml</dc:format>
        <dc:type
           rdf:resource="http://purl.org/dc/dcmitype/StillImage" />
        <dc:title></dc:title>
      </cc:Work>
    </rdf:RDF>
  </metadata>
  <defs
     id="defs20" />
  <sodipodi:namedview
     pagecolor="#ffffff"
     bordercolor="#666666"
     borderopacity="1"
     objecttolerance="10"
     gridtolerance="10"
     guidetolerance="10"
     inkscape:pageopacity="0"
     inkscape:pageshadow="2"
     inkscape:window-width="1126"
     inkscape:window-height="712"
     id="namedview18"
     showgrid="false"
     inkscape:zoom="1.225974"
     inkscape:cx="96.25"
     inkscape:cy="96.25"
     inkscape:window-x="0"
     inkscape:window-y="0"
     inkscape:window-maximized="0"
     inkscape:current-layer="svg2" />
  <g
     transform="matrix(0.1,0,0,-0.1,0,156.61017)"
     id="g4"
     style="fill:#ffffff;stroke:none">
    <path
       d="m 779,1449 c -42,-19 -54,-45 -16,-36 60,16 117,33 122,39 15,15 -70,13 -106,-3 z"
       id="path6"
       inkscape:connector-curvature="0"
       style="fill:#ffffff" />
    <path
       d="m 907,1453 c -11,-10 27,-74 40,-69 7,3 15,-5 19,-19 3,-14 14,-25 27,-27 19,-3 22,-9 21,-50 0,-50 10,-63 21,-28 3,11 11,20 16,20 13,0 11,-12 -7,-38 -8,-12 -12,-27 -9,-32 9,-14 -19,-12 -33,2 -7,7 -12,29 -12,49 0,20 -7,42 -15,49 -8,7 -15,19 -15,26 0,8 -11,19 -25,24 -14,5 -25,16 -25,25 0,8 -11,22 -25,31 -21,14 -29,14 -55,3 -33,-15 -38,-30 -15,-49 12,-10 17,-7 26,14 16,35 31,28 48,-21 10,-28 23,-43 43,-51 26,-9 40,-42 18,-42 -21,0 -60,24 -65,41 -3,9 -13,23 -21,30 -13,10 -17,10 -25,-2 -12,-20 -12,-22 12,-47 11,-12 17,-27 13,-33 -3,-6 0,-22 7,-37 10,-18 11,-26 2,-29 -6,-2 -21,-12 -33,-23 -21,-18 -21,-18 -1,-25 12,-3 26,-3 32,1 8,4 9,3 5,-5 -4,-6 -2,-18 4,-26 10,-12 9,-16 -3,-21 -9,-3 -21,-3 -27,1 -5,3 -10,2 -10,-4 0,-11 25,-19 75,-23 28,-3 30,-6 33,-53 2,-27 7,-54 13,-59 13,-14 11,-48 -3,-44 -16,6 -37,89 -31,122 5,23 2,26 -26,26 -24,0 -31,-4 -31,-19 0,-11 5,-23 10,-26 6,-3 10,-14 10,-24 0,-34 42,-121 59,-121 8,0 25,12 38,26 21,25 22,28 7,63 -25,57 -27,70 -13,87 10,12 24,15 56,10 34,-4 43,-2 43,9 0,8 -3,15 -7,15 -5,0 -15,4 -23,10 -12,7 -12,12 4,29 19,21 19,21 -4,21 -19,0 -21,2 -10,15 12,14 16,13 37,-7 16,-15 23,-31 20,-45 -2,-13 0,-23 4,-23 5,0 9,9 9,19 0,11 3,26 6,35 4,10 -6,27 -27,47 -28,26 -31,33 -21,50 7,10 12,28 12,40 0,23 24,21 27,-2 1,-8 5,-35 8,-62 7,-56 25,-53 25,4 0,21 5,39 10,39 13,0 13,-56 -1,-81 -8,-15 -6,-25 10,-46 12,-14 21,-37 21,-51 0,-20 3,-23 12,-14 9,9 10,20 2,41 -8,21 -8,32 2,46 12,17 14,17 20,1 12,-31 -6,-82 -61,-166 -30,-46 -58,-100 -61,-120 -9,-57 -18,-68 -22,-30 -5,48 16,147 36,171 9,11 28,31 41,44 14,15 21,31 17,40 -10,26 -40,12 -52,-23 -6,-19 -15,-37 -20,-40 -5,-4 -14,-16 -20,-27 -7,-11 -19,-19 -28,-17 -11,2 -16,-4 -16,-20 0,-13 -6,-35 -14,-49 -11,-22 -11,-30 0,-50 21,-38 18,-52 -7,-38 -17,9 -23,8 -30,-2 -6,-11 -11,-10 -26,3 -10,8 -22,14 -28,12 -5,-2 -27,12 -48,31 -25,23 -45,34 -57,30 -23,-7 -50,4 -50,20 0,8 10,17 22,21 l 23,7 -25,9 -25,9 25,14 c 14,8 38,14 54,15 27,0 28,1 14,22 -20,30 -34,33 -41,7 -5,-18 -10,-20 -39,-14 -44,10 -48,13 -48,36 0,12 7,19 19,19 42,0 36,45 -7,53 -18,4 -32,0 -42,-11 -9,-10 -32,-18 -57,-18 -37,-2 -43,1 -53,26 -6,15 -11,34 -10,41 4,28 0,48 -14,61 -17,18 -15,60 3,66 10,3 12,-3 6,-27 -4,-20 -3,-31 4,-31 6,0 11,-8 11,-17 0,-10 14,-26 31,-35 38,-22 49,-23 49,-3 0,8 9,15 20,15 23,0 26,22 6,40 -8,6 -20,27 -26,46 -7,19 -17,33 -23,31 -19,-6 -20,-44 -1,-71 9,-14 12,-26 7,-26 -19,0 -33,25 -33,58 0,19 -9,47 -20,62 l -21,29 23,15 c 13,8 43,20 67,26 29,8 40,15 34,21 -18,18 -81,-2 -129,-39 -45,-36 -48,-36 -167,-43 C 230,1318 114,1280 104,1230 95,1184 71,1096 50,1025 23,937 32,906 104,832 l 51,-53 -3,-104 -2,-105 49,-54 c 29,-32 52,-67 55,-87 19,-98 31,-122 90,-189 34,-38 73,-87 88,-109 33,-49 54,-51 94,-10 42,45 73,58 198,84 123,25 158,40 255,109 36,25 76,46 90,46 39,0 103,25 118,46 7,10 13,39 13,65 0,26 5,51 10,54 6,3 10,21 10,40 0,27 -6,37 -30,52 -21,12 -30,25 -30,43 0,14 -9,49 -19,78 l -20,53 30,43 c 16,24 29,49 29,54 0,6 10,18 23,27 16,11 22,26 22,51 l 0,36 86,22 c 130,32 209,94 195,151 -13,51 -132,78 -245,56 l -59,-12 -59,59 c -57,57 -170,138 -186,134 -5,-2 -11,6 -14,17 -5,20 -27,34 -36,24 z m 153,-144 c 0,-11 -4,-17 -10,-14 -5,3 -10,13 -10,21 0,8 5,14 10,14 6,0 10,-9 10,-21 z m -604,-33 c 1,0 4,-18 8,-39 6,-33 5,-38 -11,-35 -13,2 -22,-10 -37,-54 -20,-58 -30,-66 -31,-25 0,20 -4,22 -50,19 -47,-3 -49,-2 -31,13 11,8 23,15 28,15 4,0 8,9 8,20 0,12 -7,20 -17,20 -15,0 -16,2 -3,10 8,5 36,10 61,10 31,0 49,5 52,14 7,19 -1,26 -30,26 -15,0 -22,4 -18,11 5,8 63,4 71,-5 z m -169,-10 c -9,-7 -29,-11 -43,-8 -32,6 -17,16 28,19 29,2 31,1 15,-11 z m 73,10 c 0,-2 -9,-6 -20,-9 -11,-3 -20,-1 -20,4 0,5 9,9 20,9 11,0 20,-2 20,-4 z m -155,-25 c -15,-14 -75,-24 -75,-13 0,12 22,19 60,21 14,1 20,-3 15,-8 z m 325,-20 c -5,-11 -7,-26 -4,-35 3,-8 1,-22 -4,-32 -7,-13 -10,-7 -15,27 -6,48 -3,59 19,59 11,0 12,-4 4,-19 z m 463,-82 c 13,-27 22,-51 19,-54 -11,-10 -32,-4 -32,9 0,8 -9,35 -20,61 -14,33 -25,45 -35,41 -11,-4 -15,2 -15,21 l 0,27 29,-28 c 16,-16 41,-50 54,-77 z m 417,61 c 0,-5 -12,-9 -27,-9 -44,0 -67,-3 -78,-11 -11,-7 -93,-14 -85,-7 27,26 190,50 190,27 z M 230,1164 c -23,-27 -30,-44 -28,-66 5,-49 41,-69 130,-71 67,-1 75,-3 70,-19 -3,-12 -8,-15 -16,-10 -6,5 -38,12 -72,15 -111,9 -158,53 -130,121 13,31 49,66 69,66 5,0 -5,-16 -23,-36 z m 700,-15 c 0,-11 -4,-19 -9,-19 -16,0 -31,27 -25,44 8,21 34,2 34,-25 z m 554,-3 c -3,-14 -7,-26 -8,-27 0,0 -28,-3 -61,-6 -33,-3 -68,-10 -78,-15 -19,-10 -36,-4 -24,8 4,4 39,14 79,24 62,14 74,20 76,40 3,14 7,19 13,13 6,-6 7,-22 3,-37 z M 480,1061 c 0,-6 -4,-13 -10,-16 -5,-3 -10,1 -10,9 0,9 5,16 10,16 6,0 10,-4 10,-9 z m 880,5 c 0,-3 -4,-8 -10,-11 -5,-3 -10,-1 -10,4 0,6 5,11 10,11 6,0 10,-2 10,-4 z m -685,-36 c 31,-19 64,-70 45,-70 -6,0 -10,4 -10,10 0,15 -56,40 -89,40 -36,0 -48,15 -24,29 26,15 42,13 78,-9 z m -225,-15 c -7,-9 -15,-13 -17,-11 -7,7 7,26 19,26 6,0 6,-6 -2,-15 z m 137,-60 c 25,-19 51,-35 58,-35 6,0 20,-9 29,-19 17,-19 17,-20 -3,-30 -11,-6 -29,-11 -40,-11 -25,0 -78,44 -86,73 -4,12 -9,30 -11,40 -7,24 1,22 53,-18 z m 613,21 c 0,-16 -18,-31 -27,-22 -8,8 5,36 17,36 5,0 10,-6 10,-14 z M 343,945 c -7,-21 -13,-19 -13,6 0,11 4,18 10,14 5,-3 7,-12 3,-20 z m 114,-59 c -8,-23 -22,-13 -24,17 -2,30 -1,31 13,12 8,-10 13,-24 11,-29 z m -84,-56 c 7,0 18,5 25,12 6,6 14,9 17,7 3,-3 -9,-18 -25,-34 l -30,-28 -15,36 c -8,20 -15,43 -15,52 0,21 -9,19 -34,-8 -53,-58 -54,-113 -1,-89 36,17 38,15 18,-13 -14,-19 -27,-24 -58,-24 -41,0 -75,17 -75,38 0,14 31,46 59,61 12,6 21,17 21,24 0,8 17,23 38,34 l 37,19 13,-43 c 7,-24 18,-44 25,-44 z m 366,-14 c 0,-62 -4,-87 -14,-96 -17,-14 -18,-9 -15,48 1,21 -3,32 -12,32 -24,0 -36,-15 -48,-60 -7,-25 -14,-51 -16,-59 -3,-11 -7,-11 -19,-1 -10,8 -15,31 -15,70 l 0,58 44,6 c 45,7 76,36 76,71 0,8 4,15 9,15 5,0 10,-38 10,-84 z m -205,53 c 33,-26 33,-47 0,-55 -30,-8 -44,7 -44,49 0,32 9,34 44,6 z m 606,12 c 0,-6 -4,-13 -10,-16 -5,-3 -10,1 -10,9 0,9 5,16 10,16 6,0 10,-4 10,-9 z M 804,803 c 6,-44 -7,-66 -22,-36 -11,21 -3,99 8,86 4,-4 10,-27 14,-50 z m -327,20 c 7,-10 23,-37 34,-61 12,-23 46,-64 76,-92 30,-27 52,-54 48,-60 -3,-5 -26,11 -50,38 -24,26 -50,54 -58,62 -17,19 -77,130 -70,130 3,0 12,-8 20,-17 z m -23,-19 c 4,-10 -1,-22 -11,-30 -18,-13 -23,-15 -43,-18 -6,0 -15,-8 -20,-16 -5,-8 -10,-10 -10,-4 0,12 61,84 71,84 4,0 10,-7 13,-16 z M 409,681 c 7,-15 28,-43 47,-62 38,-36 43,-51 17,-47 -13,2 -18,-3 -17,-19 1,-27 -9,-29 -27,-6 -10,11 -10,14 -1,9 14,-9 16,15 3,42 -30,60 -50,112 -42,112 5,0 14,-13 20,-29 z m 731,3 c 0,-7 -6,-15 -12,-17 -8,-4 3,-20 30,-44 49,-44 53,-69 17,-103 -14,-13 -25,-33 -24,-44 0,-12 3,-15 6,-8 2,6 9,12 14,12 19,0 7,-26 -24,-51 -23,-19 -37,-24 -52,-18 -17,7 -16,8 8,8 23,1 27,5 27,30 0,39 -22,55 -65,48 -21,-3 -33,-2 -30,4 4,5 1,9 -4,9 -6,0 -11,-7 -11,-15 0,-8 -5,-15 -11,-15 -6,0 -9,7 -5,15 3,8 2,15 -2,15 -4,0 -13,-13 -19,-30 -8,-22 -18,-30 -36,-30 -14,0 -27,-5 -29,-10 -2,-6 -13,-12 -25,-14 -11,-3 -35,-12 -52,-20 -47,-25 -96,-21 -120,10 -12,15 -21,30 -21,34 0,4 24,31 53,61 28,29 52,62 52,74 0,18 5,20 54,18 30,-2 57,-6 60,-11 21,-29 145,-36 163,-9 4,7 12,6 22,-3 20,-15 35,-5 18,12 -14,14 -106,18 -139,6 -28,-9 -53,-1 -53,18 0,28 49,47 116,46 38,0 64,4 64,10 0,7 -25,8 -72,4 -40,-3 -81,-6 -91,-7 -10,0 -30,-4 -43,-9 -15,-6 -24,-6 -24,0 0,6 3,10 8,10 4,1 30,7 57,14 63,18 195,17 195,0 z M 794,656 c -1,-9 2,-16 7,-16 18,0 8,-16 -21,-32 -27,-15 -45,-9 -20,7 15,9 12,25 -5,25 -20,0 -19,10 3,26 21,16 37,12 36,-10 z m 61,-6 c -3,-5 -12,-10 -18,-10 -7,0 -6,4 3,10 19,12 23,12 15,0 z M 690,610 c 0,-5 -5,-10 -11,-10 -5,0 -7,5 -4,10 3,6 8,10 11,10 2,0 4,-4 4,-10 z M 397,595 c 3,-9 3,-19 -1,-22 -8,-9 -37,18 -30,28 8,14 24,11 31,-6 z m 96,-62 c 2,-10 8,-27 13,-38 7,-20 7,-20 -14,-1 -12,11 -22,27 -22,38 0,23 16,24 23,1 z m 42,7 c 3,-6 -1,-7 -9,-4 -18,7 -21,14 -7,14 6,0 13,-4 16,-10 z M 359,526 c 8,-9 3,-22 -19,-46 -23,-26 -28,-39 -24,-64 9,-48 -13,-11 -27,46 -6,27 -15,48 -20,48 -5,0 -9,6 -9,13 0,16 86,19 99,3 z m 331,-16 c 0,-5 -5,-10 -11,-10 -5,0 -7,5 -4,10 3,6 8,10 11,10 2,0 4,-4 4,-10 z m -59,-21 c 11,-11 27,-18 35,-15 8,3 14,-1 14,-9 0,-8 -9,-15 -20,-15 -22,0 -80,38 -80,52 0,15 30,8 51,-13 z m 454,-19 c 3,-5 1,-10 -4,-10 -6,0 -11,5 -11,10 0,6 2,10 4,10 3,0 8,-4 11,-10 z M 560,435 c 10,-12 10,-15 -3,-15 -8,0 -17,7 -21,15 -3,8 -2,15 3,15 5,0 14,-7 21,-15 z m 468,-22 c -10,-2 -28,-2 -40,0 -13,2 -5,4 17,4 22,1 32,-1 23,-4 z M 665,390 c 18,-8 18,-9 -5,-9 -14,0 -32,4 -40,9 -12,8 -12,10 5,9 11,0 29,-4 40,-9 z m 88,-16 c 37,-9 34,-21 -8,-26 -24,-3 -35,0 -35,9 0,7 -4,13 -10,13 -5,0 -10,5 -10,11 0,6 8,8 18,5 9,-3 29,-8 45,-12 z m 157,-17 c 0,-25 -132,-83 -168,-74 -14,3 -15,5 -2,10 8,3 27,8 41,11 14,3 43,19 64,36 40,32 65,38 65,17 z M 466,246 c 7,-3 32,6 57,19 35,19 59,24 113,23 38,0 73,-3 79,-6 11,-7 -121,-51 -153,-52 -14,0 -39,-15 -59,-35 -19,-19 -38,-35 -41,-35 -4,0 -8,18 -8,39 -1,22 -9,50 -18,63 -9,12 -16,27 -16,33 0,5 8,-2 17,-17 10,-15 23,-30 29,-32 z"
       id="path8"
       inkscape:connector-curvature="0"
       style="fill:#ffffff" />
    <path
       d="m 820,579 c 0,-5 5,-7 10,-4 6,3 10,8 10,11 0,2 -4,4 -10,4 -5,0 -10,-5 -10,-11 z"
       id="path10"
       inkscape:connector-curvature="0"
       style="fill:#ffffff" />
    <path
       d="m 826,544 c -9,-24 16,-69 40,-72 27,-4 52,24 36,40 -7,7 -12,20 -12,30 0,24 -55,25 -64,2 z"
       id="path12"
       inkscape:connector-curvature="0"
       style="fill:#ffffff" />
    <path
       d="m 720,1369 c 0,-6 14,-24 30,-39 18,-17 26,-31 20,-35 -7,-4 -7,-12 0,-24 5,-10 7,-21 4,-24 -8,-8 24,-77 35,-77 38,0 20,159 -22,192 -25,20 -67,24 -67,7 z"
       id="path14"
       inkscape:connector-curvature="0"
       style="fill:#ffffff" />
    <path
       d="m 995,1018 c 12,-37 23,-43 45,-23 24,22 11,45 -27,45 -21,0 -23,-3 -18,-22 z"
       id="path16"
       inkscape:connector-curvature="0"
       style="fill:#ffffff" />
  </g>
</svg>
